<svg width="1440" height="1024" viewBox="0 0 1440 1024" fill="none" xmlns="http://www.w3.org/2000/svg">
<g clip-path="url(#clip0_23_3)">
<path d="M96.0146 709.434L399.969 534.012" stroke="#A5ADBA" stroke-miterlimit="10" stroke-linecap="round" stroke-dasharray="1 1"/>
<path d="M5.43213 473.621L351.082 412.654" stroke="#091E42" stroke-miterlimit="10" stroke-linecap="round" stroke-dasharray="1 1"/>
<path d="M1.1189 220.84L346.769 281.806" stroke="#091E42" stroke-miterlimit="10" stroke-linecap="round" stroke-dasharray="1 1"/>
<path d="M83.3604 -18.1366L387.315 157.286" stroke="#091E42" stroke-miterlimit="10" stroke-linecap="round" stroke-dasharray="1 1"/>
<path d="M242.383 -214.553L468.121 54.3319" stroke="#091E42" stroke-miterlimit="10" stroke-linecap="round" stroke-dasharray="1 1"/>
<path d="M1177.82 -230.657L952.378 37.9403" stroke="#091E42" stroke-miterlimit="10" stroke-linecap="round" stroke-dasharray="1 1"/>
<path d="M1343.46 -39.9932L1039.8 135.429" stroke="#091E42" stroke-miterlimit="10" stroke-linecap="round" stroke-dasharray="1 1"/>
<path d="M1434.05 196.108L1088.68 256.787" stroke="#091E42" stroke-miterlimit="10" stroke-linecap="round" stroke-dasharray="1 1"/>
<path d="M1438.65 448.6L1093 387.634" stroke="#091E42" stroke-miterlimit="10" stroke-linecap="round" stroke-dasharray="1 1"/>
<path d="M1356.12 687.579L1052.45 512.156" stroke="#091E42" stroke-miterlimit="10" stroke-linecap="round" stroke-dasharray="1 1"/>
<path d="M1197.09 883.994L971.646 615.109" stroke="#091E42" stroke-miterlimit="10" stroke-linecap="round" stroke-dasharray="1 1"/>
<path d="M980.558 1014.26L860.645 684.414" stroke="#091E42" stroke-miterlimit="10" stroke-linecap="round" stroke-dasharray="1 1"/>
<path d="M720.027 937.484V711.447" stroke="#091E42" stroke-miterlimit="10" stroke-linecap="round" stroke-dasharray="1 1"/>
<path d="M482.787 1022.89L602.989 693.042" stroke="#091E42" stroke-miterlimit="10" stroke-linecap="round" stroke-dasharray="1 1"/>
<path d="M261.938 900.099L487.387 631.501" stroke="#091E42" stroke-miterlimit="10" stroke-linecap="round" stroke-dasharray="1 1"/>
<path d="M96.0146 709.434L399.969 534.012" stroke="#091E42" stroke-miterlimit="10" stroke-linecap="round" stroke-dasharray="1 1"/>
<path d="M5.43213 473.621L351.082 412.654" stroke="#091E42" stroke-miterlimit="10" stroke-linecap="round" stroke-dasharray="1 1"/>
<path d="M1.1189 220.84L346.769 281.806" stroke="#091E42" stroke-miterlimit="10" stroke-linecap="round" stroke-dasharray="1 1"/>
<path d="M83.3604 -18.1366L387.315 157.286" stroke="#091E42" stroke-miterlimit="10" stroke-linecap="round" stroke-dasharray="1 1"/>
<path d="M242.383 -214.553L468.121 54.3319" stroke="#091E42" stroke-miterlimit="10" stroke-linecap="round" stroke-dasharray="1 1"/>
</g>
<defs>
<clipPath id="clip0_23_3">
<rect width="1440" height="1024" fill="white"/>
</clipPath>
</defs>
</svg>
