<?xml version="1.0" encoding="UTF-8"?>
<svg width="112px" height="77px" viewBox="0 0 112 77" version="1.1" xmlns="http://www.w3.org/2000/svg" xmlns:xlink="http://www.w3.org/1999/xlink">
    <!-- Generator: Sketch 52.2 (67145) - http://www.bohemiancoding.com/sketch -->
    <title>logo</title>
    <desc>Created with Sketch.</desc>
    <g id="Page-1" stroke="none" stroke-width="1" fill="none" fill-rule="evenodd">
        <g id="logo">
            <polygon id="Path" fill="#D51317" points="111.97 76.54 0 76.54 0 0 111.97 0"></polygon>
            <g id="Group" transform="translate(9.000000, 17.000000)" fill="#FFFFFF">
                <path d="M3.68,41.71 C3.05,41.74 2.49,41.99 2.09,42.31 L2.09,41.91 L0.21,41.91 L0.21,50.32 L2.09,50.32 L2.09,47.41 C2.46,47.6 2.93,47.72 3.39,47.72 C5.2,47.72 6.26,46.3 6.26,44.55 C6.26,43.18 5.4,41.71 3.68,41.71 Z M3.01,46.3 C2.72,46.31 2.3,46.23 2.1,46.01 L2.1,43.71 C2.38,43.47 2.73,43.31 3.1,43.3 C3.85,43.28 4.28,43.84 4.29,44.7 C4.3,45.55 3.91,46.28 3.01,46.3 Z" id="Shape" fill-rule="nonzero"></path>
                <path d="M24.83,41.71 C24.2,41.74 23.64,41.99 23.24,42.31 L23.24,41.91 L21.36,41.91 L21.36,50.32 L23.24,50.32 L23.24,47.41 C23.61,47.6 24.08,47.72 24.54,47.72 C26.35,47.72 27.41,46.3 27.41,44.55 C27.4,43.18 26.54,41.71 24.83,41.71 Z M24.15,46.3 C23.86,46.31 23.44,46.23 23.24,46.01 L23.24,43.71 C23.52,43.47 23.87,43.31 24.24,43.3 C24.99,43.28 25.42,43.84 25.43,44.7 C25.45,45.55 25.06,46.28 24.15,46.3 Z" id="Shape" fill-rule="nonzero"></path>
                <path d="M10.21,41.71 C8.45,41.71 7.18,43.14 7.18,44.84 C7.18,46.27 8.11,47.72 10.16,47.72 C11.06,47.72 12.06,47.44 12.72,46.89 L12.07,45.77 C11.54,46.13 11.16,46.33 10.48,46.33 C9.41,46.33 9.13,45.6 9.13,45.16 L13.04,45.16 C13.03,43.23 12.36,41.71 10.21,41.71 Z M9.15,44.02 C9.27,43.46 9.74,42.92 10.36,42.92 C11.01,42.92 11.29,43.44 11.29,44.02 L9.15,44.02 Z" id="Shape" fill-rule="nonzero"></path>
                <path d="M17.05,41.71 C14.97,41.71 13.89,43.02 13.89,44.71 C13.89,46.4 14.96,47.71 17.05,47.71 C19.13,47.71 20.21,46.4 20.21,44.71 C20.21,43.03 19.13,41.71 17.05,41.71 Z M17.05,46.25 C16.12,46.25 15.84,45.45 15.84,44.72 C15.84,43.99 16.12,43.19 17.05,43.19 C17.98,43.19 18.26,43.99 18.26,44.72 C18.26,45.45 17.98,46.25 17.05,46.25 Z" id="Shape" fill-rule="nonzero"></path>
                <rect id="Rectangle" x="28.59" y="39.18" width="1.95" height="8.34"></rect>
                <path d="M34.67,41.71 C32.91,41.71 31.64,43.14 31.64,44.84 C31.64,46.27 32.57,47.72 34.62,47.72 C35.52,47.72 36.52,47.44 37.18,46.89 L36.53,45.77 C36,46.13 35.62,46.33 34.94,46.33 C33.87,46.33 33.59,45.6 33.59,45.16 L37.5,45.16 C37.49,43.23 36.82,41.71 34.67,41.71 Z M33.6,44.02 C33.72,43.46 34.19,42.92 34.81,42.92 C35.46,42.92 35.74,43.44 35.74,44.02 L33.6,44.02 Z" id="Shape" fill-rule="nonzero"></path>
                <path d="M45.88,41.91 L45.87,45.54 C45.61,45.78 45.17,46.05 44.86,46.05 C44.28,46.05 44.15,45.69 44.15,45.24 C44.14,44.08 44.15,41.91 44.15,41.91 L42.2,41.91 C42.2,43.14 42.2,44.38 42.21,45.52 C42.22,47.05 42.88,47.71 44.08,47.71 C44.77,47.71 45.45,47.33 45.9,46.9 L45.9,47.51 L47.85,47.51 L47.85,41.9 L45.88,41.9 L45.88,41.91 Z" id="Path"></path>
                <path d="M53.02,41.71 C52.33,41.71 51.65,42.09 51.2,42.52 L51.2,41.91 L49.25,41.91 L49.25,47.52 L51.21,47.52 L51.21,43.89 C51.47,43.65 51.91,43.38 52.22,43.38 C52.8,43.38 52.93,43.74 52.94,44.19 C52.95,45.35 52.94,47.52 52.94,47.52 L54.88,47.52 C54.88,47.52 54.89,45.05 54.88,43.91 C54.88,42.37 54.22,41.71 53.02,41.71 Z" id="Path"></path>
                <rect id="Rectangle" x="56.27" y="39.18" width="1.95" height="8.34"></rect>
                <rect id="Rectangle" x="59.58" y="41.91" width="1.95" height="5.61"></rect>
                <polygon id="Path" points="61.53 39.42 59.58 39.42 59.58 41.02 61.52 41.02"></polygon>
                <path d="M70.43,41.71 C69.7,41.71 68.92,42.08 68.33,42.58 C67.91,41.95 67.42,41.71 66.72,41.71 C66.01,41.71 65.38,42.08 64.88,42.58 L64.88,41.91 L62.93,41.91 L62.93,47.52 L64.89,47.52 L64.89,43.89 C65.12,43.65 65.57,43.38 65.92,43.38 C66.48,43.38 66.63,43.8 66.63,44.27 C66.64,45.35 66.64,46.44 66.63,47.52 L68.59,47.52 L68.59,43.89 C68.82,43.65 69.27,43.38 69.62,43.38 C70.18,43.38 70.33,43.8 70.34,44.27 C70.35,45.35 70.34,47.52 70.34,47.52 L72.28,47.52 C72.28,46.29 72.29,45.05 72.28,43.82 C72.27,42.64 71.75,41.71 70.43,41.71 Z" id="Path"></path>
                <rect id="Rectangle" x="73.66" y="39.42" width="1.95" height="1.6"></rect>
                <rect id="Rectangle" x="73.66" y="41.91" width="1.95" height="5.61"></rect>
                <path d="M79.51,46.14 C79.07,46.15 78.94,45.92 78.93,45.43 C78.92,44.95 78.93,43.35 78.93,43.35 L80.53,43.35 L80.53,41.95 L78.93,41.95 L78.94,40.05 L77.05,40.05 L77.05,41.99 L76.22,41.99 L76.21,43.39 L77.05,43.39 C77.07,44.13 77.03,44.83 77.05,45.51 C77.09,46.8 77.19,47.79 78.77,47.76 C79.43,47.75 80.12,47.52 80.68,47.17 L80.22,45.87 C80,46 79.78,46.14 79.51,46.14 Z" id="Path"></path>
                <path d="M84.25,41.71 C82.49,41.71 81.23,43.14 81.24,44.84 C81.25,46.27 82.19,47.72 84.24,47.72 C85.14,47.72 86.14,47.44 86.8,46.89 L86.14,45.77 C85.62,46.13 85.24,46.33 84.55,46.33 C83.48,46.33 83.19,45.6 83.19,45.16 L87.1,45.16 C87.09,43.23 86.4,41.71 84.25,41.71 Z M83.21,44.02 C83.33,43.46 83.79,42.92 84.41,42.92 C85.06,42.92 85.34,43.44 85.35,44.02 L83.21,44.02 Z" id="Shape" fill-rule="nonzero"></path>
                <path d="M92.14,42.01 C91.77,41.82 91.32,41.71 90.86,41.71 C89.05,41.71 88.01,43.13 88.02,44.88 C88.03,46.25 88.9,47.72 90.62,47.72 C91.25,47.69 91.74,47.44 92.14,47.12 L92.14,47.52 L94.04,47.52 L94.04,39.18 L92.13,39.18 L92.14,42.01 Z M91.14,46.13 C90.27,46.14 89.96,45.48 89.94,44.72 C89.92,43.86 90.31,43.14 91.22,43.12 C91.51,43.12 91.93,43.2 92.13,43.42 L92.14,45.72 C91.86,45.97 91.51,46.13 91.14,46.13 Z" id="Shape" fill-rule="nonzero"></path>
                <path d="M42.35,26.96 L42.35,26.94 C42.34,26.77 42.17,26.61 41.99,26.44 C41.8,26.27 41.61,26.13 41.47,26.12 L41.44,26.12 L41.42,26.14 C40.39,27.25 38.19,30.67 36.84,30.65 C36.2,30.65 35.79,30.23 35.79,29.73 C35.78,28.28 40.97,15.23 40.97,13.54 C40.97,12.73 40.78,12.12 40.38,11.72 C39.98,11.31 39.4,11.12 38.64,11.12 C36.81,11.19 33.32,14.37 32.53,16 L32.5,16.06 L33.55,16.89 L33.6,16.83 C34.26,15.99 35.59,14.75 36.29,14.77 C36.74,14.78 36.97,15.06 36.98,15.59 C36.99,17.69 31.81,29.94 31.8,31.97 C31.8,32.78 32.04,33.37 32.47,33.75 C32.89,34.13 33.49,34.29 34.18,34.29 C37.32,34.28 40.81,29.63 42.36,26.98 L42.35,26.96 Z" id="Path"></path>
                <path d="M40.76,5.71 C42.1,5.71 43.19,4.63 43.19,3.29 C43.19,1.96 42.1,0.87 40.76,0.87 C39.42,0.87 38.33,1.95 38.33,3.29 C38.34,4.63 39.42,5.71 40.76,5.71 Z" id="Path"></path>
                <polygon id="Path" points="11.03 31.2 7.53 31.2 7.53 18.29 21.6 18.29 21.6 31.2 18.38 31.2 18.38 33.67 29.22 33.67 29.22 31.2 25.86 31.2 25.86 3.19 29.22 3.19 29.22 0.72 18.38 0.72 18.38 3.19 21.6 3.19 21.6 15.55 7.53 15.55 7.53 3.19 11.03 3.19 11.03 0.72 0.2 0.72 0.2 3.19 3.5 3.19 3.5 31.2 0.2 31.2 0.2 33.67 11.03 33.67"></polygon>
                <polygon id="Path" points="56.23 11.1 56.23 13.24 58.27 13.24 54.02 26.37 50.4 13.24 52.32 13.24 52.32 11.1 44.32 11.1 44.32 13.24 46.43 13.24 52.31 34.21 53.43 34.21 60.33 13.24 61.99 13.24 61.99 11.1"></polygon>
                <path d="M94.4,27.9 C94.4,27.76 94.4,27.62 94.39,27.48 C94.27,24.93 93.36,23.57 90,21.03 C87.17,18.86 86.11,17.39 86.04,15.86 C86.04,15.79 86.03,15.73 86.03,15.66 C86.04,13.91 87.2,12.71 88.94,12.7 C90.64,12.7 91.99,13.86 92.8,16.05 L92.85,16.18 L94.02,16.18 L94.02,10.61 L92.59,10.61 L92.59,11.64 C91.2,11.03 90.4,10.88 89.25,10.88 C87.41,10.88 85.82,11.52 84.69,12.61 C83.56,13.7 82.91,15.23 82.91,16.98 C82.91,17.1 82.91,17.22 82.92,17.35 C83.04,19.81 84.12,21.31 87.82,24.18 C90.15,26.03 90.96,27.16 91.04,28.7 C91.04,28.76 91.04,28.82 91.04,28.88 C91.04,30.69 89.62,32.07 87.76,32.08 C86.4,32.09 84.81,31.48 84.3,30.75 C84.3,30.74 83.36,29.46 83.29,29.38 C83.22,29.3 83.15,29.24 83.14,29.24 L83.09,29.2 L82,29.2 L82,29.4 L82,34.11 L83.79,34.11 L83.79,33.21 C85.38,33.74 86.47,33.89 87.83,33.89 C89.81,33.89 91.46,33.32 92.61,32.28 C93.77,31.24 94.41,29.73 94.4,27.9 Z" id="Path"></path>
                <path d="M71.43,34.43 C76.21,34.4 79.91,28.44 79.91,21.47 C79.91,21.14 79.9,20.8 79.88,20.47 C79.59,14.81 76.21,10.56 71.81,10.55 C66.91,10.57 63.45,16.18 63.44,23.55 C63.44,23.95 63.45,24.37 63.47,24.78 C63.75,30.18 67.18,34.42 71.43,34.43 Z M68.55,14.69 C69.28,13.27 70.28,12.54 71.57,12.53 C72.96,12.52 74.18,13.78 74.84,16.02 C75.31,17.9 75.77,20.4 75.86,22.22 C75.88,22.68 75.89,23.12 75.89,23.56 C75.89,26.23 75.45,28.44 74.69,29.95 C73.92,31.47 72.86,32.28 71.56,32.28 C70.41,32.28 69.48,31.54 68.77,29.94 C68.06,28.35 67.61,25.94 67.45,22.74 C67.45,22.74 67.44,21.22 67.44,20.84 C67.43,18.21 67.83,16.11 68.55,14.69 Z" id="Shape" fill-rule="nonzero"></path>
            </g>
        </g>
    </g>
</svg>