<svg xmlns="http://www.w3.org/2000/svg" id="Layer_1" data-name="Layer 1" viewBox="0 0 2255.15 651.15"><defs><style>.cls-1{fill:#7004a6;}.cls-2{fill:#333;}.cls-3{fill:#333233;}.cls-4{fill:#64a4db;}.cls-5{fill:#e56f17;}.cls-6{fill:#66b29d;}.cls-7{fill:#f9f9f9;}</style></defs><path class="cls-1" d="M609.1,72.3h35.69V282.81H609.1Z"></path><path class="cls-1" d="M844.68,87.83v41.53h-1.79c-13.38-17.12-34.2-26.31-59.19-26.31-42.24,0-70.5,30.12-70.5,74.5s28.26,74.51,70.5,74.51c24.69,0,45.51-8.88,59.19-26.32h1.79v41.53C828.62,279.64,809.28,286,782.21,286c-62.76,0-105-45-105-108.43s42.24-108.42,105-108.42C809.88,69.13,828.91,75.15,844.68,87.83Z"></path><path class="cls-1" d="M1089.78,282.81h-36l-44.91-147.42h-.6L963.07,282.81h-35.7L864.61,72.3h37.48l44,153.44h.6l47-153.44h30.93l46.7,153.76h.6L1116.26,72.3h36.58Z"></path><path class="cls-2" d="M1183.49,282.81V72.3h16.36V267H1321.5v15.85Z"></path><path class="cls-2" d="M1496.71,232.08H1375.05l-22.31,50.73h-17.55l93.1-210.51h15.47l93.4,210.51H1519Zm-61-138.86-53.84,123h108l-53.54-123Z"></path><path class="cls-2" d="M1594.28,282.81V88.15h-70.2V72.3H1680V88.15h-69.31V282.81Z"></path><path class="cls-2" d="M1712.67,72.3H1729V282.81h-16.36Z"></path><path class="cls-2" d="M1929.21,282.81,1795.66,90.37h-.6V282.81H1779V72.3h23.2L1932.78,260h.6V72.3h16.06V282.81Z"></path><path class="cls-2" d="M2142.2,232.08H2020.54l-22.31,50.73h-17.55l93.1-210.51h15.47l93.4,210.51h-18.14Zm-61-138.86-53.84,123h108l-53.55-123Z"></path><path class="cls-3" d="M676.26,349.22v10.49h-.5c-6.13-7.12-15.62-10.74-26.49-10.74-20.87,0-34.73,14-34.73,34.36s13.86,34.35,34.73,34.35c10.74,0,20.24-3.49,26.49-10.74h.5v10.49c-6.63,5.5-16.12,8.62-27.37,8.62-26,0-43.72-17.74-43.72-42.72s17.74-42.73,43.72-42.73C660.64,340.6,669.63,343.47,676.26,349.22Z"></path><path class="cls-3" d="M749,395.69c0,17.75-12.87,30.36-30.86,30.36s-30.74-12.61-30.74-30.36,12.75-30.48,30.74-30.48S749,377.83,749,395.69Zm-53.1,0c0,13.5,9.24,22.87,22.24,22.87s22.36-9.37,22.36-22.87-9.24-23-22.36-23S695.87,382.2,695.87,395.69Z"></path><path class="cls-3" d="M853.41,390.7v34.11H845V391.45c0-12.25-5.5-18.74-15.74-18.74-11.12,0-17.24,7.62-17.24,21.73v30.37h-8.37V391.45c0-12.25-5.38-18.74-15.75-18.74-11.24,0-17.24,7.62-17.24,21.24v30.86h-8.37V366.46h7.12l.25,9.24H770c3.75-6.74,10.37-10.49,19.74-10.49s16.37,4.25,19.62,12.37h.25c3.5-8.12,10.62-12.37,21.61-12.37C845.54,365.21,853.41,374.33,853.41,390.7Z"></path><path class="cls-3" d="M914.38,424.81l-.38-10.5h-.25c-4.12,7.5-11.61,11.74-21.86,11.74-15.12,0-24.36-9.74-24.36-25.86V366.46h8.37v32.73c0,12.25,6.74,19.37,17.74,19.37,12,0,19.49-8.37,19.49-22.12v-30h8.37v58.35Z"></path><path class="cls-3" d="M992.59,391.2v33.61h-8.37V392.07c0-12.12-6.62-19.36-17.87-19.36-12,0-19.49,8.49-19.49,22.11v30h-8.37V366.46h7.25l.25,10.37h.25c4.12-7.5,11.62-11.62,21.86-11.62C983.22,365.21,992.59,375.08,992.59,391.2Z"></path><path class="cls-3" d="M1018.07,348a5.58,5.58,0,0,1-5.74,5.74,5.5,5.5,0,0,1-5.75-5.74,5.58,5.58,0,0,1,5.75-5.75A5.66,5.66,0,0,1,1018.07,348Zm-10,18.49h8.37v58.35h-8.37Z"></path><path class="cls-3" d="M1083.66,424.81l-.24-10.5h-.25c-4.5,7.25-12.87,11.74-23.87,11.74-17.11,0-29.48-12.61-29.48-30.36s12.37-30.48,29.48-30.48c10.25,0,18.37,4,23,10.49h.25V337.35h8.37v87.46Zm-.87-29.12c0-13.49-9.24-23-22.24-23s-22.24,9.49-22.24,23,9.25,22.87,22.24,22.87S1082.79,409.19,1082.79,395.69Z"></path><path class="cls-3" d="M1158.13,424.81l-.25-10.5h-.25c-4.5,7.25-13,11.74-24,11.74-17.12,0-29.49-12.61-29.49-30.36s12.37-30.48,29.49-30.48c11,0,19.36,4.5,24,11.74h.25l.25-10.49h7.12v58.35Zm-.88-29.12c0-13.49-9.24-23-22.36-23s-22.24,9.49-22.24,23,9.24,22.87,22.24,22.87S1157.25,409.19,1157.25,395.69Z"></path><path class="cls-3" d="M1232.34,424.81l-.25-10.5h-.25c-4.5,7.25-12.87,11.74-23.87,11.74-17.11,0-29.48-12.61-29.48-30.36s12.37-30.48,29.48-30.48c10.25,0,18.37,4,23,10.49h.25V337.35h8.37v87.46Zm-.88-29.12c0-13.49-9.24-23-22.24-23s-22.24,9.49-22.24,23,9.25,22.87,22.24,22.87S1231.46,409.19,1231.46,395.69Z"></path><path class="cls-3" d="M1285.68,341.85h9.24v83h-9.24Z"></path><path class="cls-3" d="M1367.64,391.2v33.61h-8.37V392.07c0-12.12-6.63-19.36-17.87-19.36-12,0-19.49,8.49-19.49,22.11v30h-8.37V366.46h7.25l.25,10.37h.25c4.12-7.5,11.61-11.62,21.86-11.62C1358.27,365.21,1367.64,375.08,1367.64,391.2Z"></path><path class="cls-3" d="M1415.36,423.81c-2.5,1.49-6,2.24-10.12,2.24-11.62,0-18.11-7-18.11-19.36v-33h-11.25v-7.25h11.5l1.37-15.62h6.75v15.62h19.61v7.25H1395.5v32.73c0,7.62,4.12,12.12,10.74,12.12,3.25,0,6.5-.88,8.75-3.37h.37Z"></path><path class="cls-3" d="M1432.35,398.19c1.13,12.5,10.75,20.37,25.24,20.37,8.87,0,16.24-2.75,22-8.37h.37v8.62c-5.24,4.62-13.36,7.24-22.61,7.24-20.36,0-33.48-12-33.48-30.36,0-17.86,12.49-30.48,30.36-30.48s29.61,11.12,29.61,28.11v4.87Zm0-7.24h43.73c-1.12-11.12-9.49-18.24-21.74-18.24C1442.85,372.71,1434.23,380.08,1432.35,391Z"></path><path class="cls-3" d="M1532.43,367.46V376h-.38a15.28,15.28,0,0,0-9.24-2.74c-11.62,0-17.5,8.37-17.5,24.36v27.24h-8.37V366.46h7.25l.25,10.49c3.5-7.74,9.62-11.74,19-11.74A17.64,17.64,0,0,1,1532.43,367.46Z"></path><path class="cls-3" d="M1596.39,391.2v33.61H1588V392.07c0-12.12-6.62-19.36-17.86-19.36-12,0-19.49,8.49-19.49,22.11v30h-8.38V366.46h7.25l.25,10.37h.25c4.12-7.5,11.62-11.62,21.87-11.62C1587,365.21,1596.39,375.08,1596.39,391.2Z"></path><path class="cls-3" d="M1662.11,424.81l-.25-10.5h-.25c-4.5,7.25-13,11.74-24,11.74-17.12,0-29.49-12.61-29.49-30.36s12.37-30.48,29.49-30.48c11,0,19.37,4.5,24,11.74h.25l.25-10.49h7.12v58.35Zm-.88-29.12c0-13.49-9.24-23-22.36-23s-22.24,9.49-22.24,23,9.25,22.87,22.24,22.87S1661.23,409.19,1661.23,395.69Z"></path><path class="cls-3" d="M1733.2,371.46v9.37h-.38c-4.62-5.5-10.62-8.12-18.37-8.12-14.36,0-23.48,9.49-23.48,23s9.12,22.87,23.48,22.87c7.75,0,13.87-2.63,18.37-8.12h.38v9.49c-4.5,4.13-11.25,6.12-19.5,6.12-18.86,0-31.23-12.74-31.23-30.36,0-17.86,12.37-30.48,31.23-30.48C1722,365.21,1728.57,367.33,1733.2,371.46Z"></path><path class="cls-3" d="M1757.68,348a5.58,5.58,0,0,1-5.75,5.74,5.5,5.5,0,0,1-5.74-5.74,5.58,5.58,0,0,1,5.74-5.75A5.66,5.66,0,0,1,1757.68,348Zm-10,18.49h8.37v58.35h-8.37Z"></path><path class="cls-3" d="M1831,395.69c0,17.75-12.87,30.36-30.86,30.36s-30.74-12.61-30.74-30.36,12.75-30.48,30.74-30.48S1831,377.83,1831,395.69Zm-53.1,0c0,13.5,9.25,22.87,22.24,22.87s22.36-9.37,22.36-22.87-9.24-23-22.36-23S1777.92,382.2,1777.92,395.69Z"></path><path class="cls-3" d="M1898.36,391.2v33.61H1890V392.07c0-12.12-6.63-19.36-17.87-19.36-12,0-19.49,8.49-19.49,22.11v30h-8.37V366.46h7.25l.25,10.37h.25c4.12-7.5,11.61-11.62,21.86-11.62C1889,365.21,1898.36,375.08,1898.36,391.2Z"></path><path class="cls-3" d="M1964.07,424.81l-.25-10.5h-.25c-4.49,7.25-13,11.74-24,11.74-17.11,0-29.48-12.61-29.48-30.36s12.37-30.48,29.48-30.48c11,0,19.37,4.5,24,11.74h.25l.25-10.49h7.12v58.35Zm-.87-29.12c0-13.49-9.25-23-22.37-23s-22.23,9.49-22.23,23,9.24,22.87,22.23,22.87S1963.2,409.19,1963.2,395.69Z"></path><path class="cls-3" d="M1996.55,424.81h-8.37V337.35h8.37Z"></path><path class="cls-3" d="M2091.13,424.81l-.25-10.5h-.25c-4.5,7.25-12.87,11.74-23.86,11.74-17.12,0-29.49-12.61-29.49-30.36s12.37-30.48,29.49-30.48c10.24,0,18.36,4,23,10.49h.25V337.35h8.37v87.46Zm-.88-29.12c0-13.49-9.24-23-22.24-23s-22.23,9.49-22.23,23,9.24,22.87,22.23,22.87S2090.25,409.19,2090.25,395.69Z"></path><path class="cls-3" d="M2120.11,398.19c1.13,12.5,10.75,20.37,25.24,20.37,8.87,0,16.24-2.75,22-8.37h.37v8.62c-5.25,4.62-13.37,7.24-22.61,7.24-20.37,0-33.49-12-33.49-30.36,0-17.86,12.5-30.48,30.37-30.48s29.61,11.12,29.61,28.11v4.87Zm0-7.24h43.73c-1.13-11.12-9.5-18.24-21.74-18.24C2130.61,372.71,2122,380.08,2120.11,391Z"></path><path class="cls-3" d="M690.42,543.6V475.27h-.23L657.64,543.6h-7.18L618.37,476h-.23V543.6H609.8V466.69h13.09l31.16,65.8h.23l31.5-65.8H699V543.6Z"></path><path class="cls-3" d="M758.4,543.6l-.35-9.72h-.23c-3.82,7-10.77,10.88-20.27,10.88-14,0-22.58-9-22.58-24V489.51h7.76v30.35c0,11.35,6.25,17.95,16.44,17.95,11.12,0,18.07-7.76,18.07-20.5v-27.8H765V543.6Z"></path><path class="cls-3" d="M788.51,552.29c0,10-4.17,14.48-12.39,14.48a15.64,15.64,0,0,1-6.37-1.16v-7.18h.35a7.75,7.75,0,0,0,4.86,1.39c4.29,0,5.79-2.08,5.79-8V489.51h7.76ZM790,472.37a5.18,5.18,0,0,1-5.33,5.33,5.11,5.11,0,0,1-5.33-5.33,5.18,5.18,0,0,1,5.33-5.33A5.25,5.25,0,0,1,790,472.37Z"></path><path class="cls-3" d="M808.78,518.93c1,11.59,10,18.88,23.4,18.88,8.22,0,15.06-2.54,20.38-7.76h.35v8c-4.86,4.29-12.39,6.72-21,6.72-18.88,0-31.05-11.12-31.05-28.14,0-16.57,11.59-28.27,28.15-28.27s27.45,10.31,27.45,26.07v4.51Zm0-6.71h40.54c-1-10.31-8.8-16.92-20.15-16.92C818.51,495.3,810.52,502.14,808.78,512.22Z"></path><path class="cls-3" d="M901.56,490.44v7.88h-.35a14.13,14.13,0,0,0-8.57-2.55c-10.78,0-16.22,7.76-16.22,22.58V543.6h-7.76V489.51h6.72l.23,9.73c3.24-7.18,8.92-10.89,17.61-10.89A16.31,16.31,0,0,1,901.56,490.44Z"></path><path class="cls-3" d="M913.6,518.93c1,11.59,10,18.88,23.4,18.88,8.22,0,15.06-2.54,20.38-7.76h.35v8c-4.86,4.29-12.39,6.72-21,6.72-18.88,0-31-11.12-31-28.14,0-16.57,11.59-28.27,28.15-28.27s27.45,10.31,27.45,26.07v4.51Zm0-6.71h40.54c-1-10.31-8.8-16.92-20.15-16.92C923.33,495.3,915.34,502.14,913.6,512.22Z"></path><path class="cls-3" d="M1008.69,492.76v8.34h-.35c-3.59-3.83-9.38-5.8-17.26-5.8-7.52,0-13,4.06-13,9.73,0,4.75,3.24,6.72,13.44,7.3,15.06.93,20.27,5.56,20.27,15.87s-8.11,16.56-21,16.56c-9,0-16-2-20.61-5.9v-8.69h.34c4.29,5,11.24,7.64,20,7.64,8.11,0,13.44-3.82,13.44-9.61,0-5.33-3.36-7.53-14.25-8.34-14.48-1-19.34-5.21-19.34-14.71,0-10,8.22-16.8,20.38-16.8C998.38,488.35,1004.87,490,1008.69,492.76Z"></path><path class="cls-3" d="M1065.44,543.6l-23.51-54.09h8.34l19.22,46h.24l19.22-46h8l-23.52,54.09Z"></path><path class="cls-3" d="M1115.13,472.37a5.18,5.18,0,0,1-5.33,5.33,5.11,5.11,0,0,1-5.33-5.33,5.18,5.18,0,0,1,5.33-5.33A5.25,5.25,0,0,1,1115.13,472.37Zm-9.27,17.14h7.76V543.6h-7.76Z"></path><path class="cls-3" d="M1146.17,543.6l-23.52-54.09H1131l19.23,46h.23l19.23-46h8l-23.51,54.09Z"></path><path class="cls-3" d="M1195.85,472.37a5.17,5.17,0,0,1-5.32,5.33,5.11,5.11,0,0,1-5.33-5.33,5.18,5.18,0,0,1,5.33-5.33A5.24,5.24,0,0,1,1195.85,472.37Zm-9.26,17.14h7.76V543.6h-7.76Z"></path><path class="cls-3" d="M1214.62,518.93c1,11.59,10,18.88,23.39,18.88,8.23,0,15.06-2.54,20.39-7.76h.35v8c-4.87,4.29-12.4,6.72-21,6.72-18.88,0-31-11.12-31-28.14,0-16.57,11.58-28.27,28.15-28.27s27.45,10.31,27.45,26.07v4.51Zm0-6.71h40.54c-1.05-10.31-8.81-16.92-20.16-16.92C1224.35,495.3,1216.35,502.14,1214.62,512.22Z"></path><path class="cls-3" d="M1324.65,512.45V543.6h-7.76V513.26c0-11.24-6.14-18-16.56-18-11.12,0-18.07,7.88-18.07,20.51V543.6h-7.76V489.51h6.71l.23,9.62h.24c3.82-6.95,10.77-10.78,20.27-10.78C1316,488.35,1324.65,497.5,1324.65,512.45Z"></path><path class="cls-3" d="M1385.45,543.6l-.23-9.72H1385c-4.17,6.71-11.93,10.88-22.12,10.88-15.87,0-27.34-11.7-27.34-28.14s11.47-28.27,27.34-28.27c9.5,0,17,3.71,21.31,9.73h.23V462.52h7.76V543.6Zm-.81-27c0-12.51-8.57-21.32-20.61-21.32s-20.62,8.81-20.62,21.32,8.57,21.19,20.62,21.19S1384.64,529.13,1384.64,516.62Z"></path><path class="cls-3" d="M1461.55,516.62c0,16.44-11.93,28.14-28.61,28.14s-28.5-11.7-28.5-28.14,11.82-28.27,28.5-28.27S1461.55,500.05,1461.55,516.62Zm-49.23,0c0,12.51,8.57,21.19,20.62,21.19s20.73-8.68,20.73-21.19-8.57-21.32-20.73-21.32S1412.32,504.11,1412.32,516.62Z"></path><path class="cls-3" d="M1542.85,494.15v8.68h-.35c-4.28-5.09-9.84-7.53-17-7.53-13.32,0-21.78,8.81-21.78,21.32s8.46,21.19,21.78,21.19c7.18,0,12.85-2.43,17-7.53h.35v8.81c-4.17,3.82-10.42,5.67-18.07,5.67-17.49,0-29-11.81-29-28.14,0-16.57,11.46-28.27,29-28.27C1532.43,488.35,1538.57,490.32,1542.85,494.15Z"></path><path class="cls-3" d="M1609.91,516.62c0,16.44-11.93,28.14-28.61,28.14s-28.49-11.7-28.49-28.14,11.81-28.27,28.49-28.27S1609.91,500.05,1609.91,516.62Zm-49.23,0c0,12.51,8.58,21.19,20.62,21.19s20.74-8.68,20.74-21.19-8.58-21.32-20.74-21.32S1560.68,504.11,1560.68,516.62Z"></path><path class="cls-3" d="M1672.34,512.45V543.6h-7.76V513.26c0-11.24-6.14-18-16.56-18-11.12,0-18.07,7.88-18.07,20.51V543.6h-7.77V489.51h6.72l.23,9.62h.24c3.82-6.95,10.77-10.78,20.27-10.78C1663.65,488.35,1672.34,497.5,1672.34,512.45Z"></path><path class="cls-3" d="M1739.86,543.6l-33.36-76.91h9.38l28,65.91h.23l28-65.91h9.15L1748,543.6Z"></path><path class="cls-3" d="M1792.9,466.69h8.57V543.6h-8.57Z"></path><path class="cls-3" d="M1878.15,543.6V508.51h-49.34V543.6h-8.57V466.69h8.57v34.06h49.34V466.69h8.57V543.6Z"></path><path class="cls-3" d="M1980.3,472.37V482h-.46c-5.1-5.56-14-8.68-24.56-8.68-11.69,0-19.69,5.79-19.69,14.48,0,7.52,4.75,10.88,20.5,12.5,21,2.09,28.15,8.46,28.15,22.13,0,13.9-10.89,22.35-28.84,22.35-12.51,0-22.7-2.89-29.07-8.34v-9.49h.46c6.83,6.6,16.68,10.07,28.61,10.07,12.74,0,20.27-5.44,20.27-14.48,0-8.22-5.1-11.93-21.54-13.66-20.39-2.09-27.11-8-27.11-20.74,0-13.67,11.24-22.58,28.38-22.58C1965.94,465.54,1975.32,468.08,1980.3,472.37Z"></path><path class="cls-3" d="M1997.79,466.69h8.57V543.6h-8.57Z"></path><path class="cls-3" d="M2054.66,466.69c25.48,0,40.77,14.48,40.77,38.34,0,24.1-15.29,38.57-40.77,38.57h-29.54V466.69Zm-.35,69.15c20.39,0,32.43-11.46,32.43-30.81s-12-30.58-32.43-30.58h-20.62v61.39Z"></path><path class="cls-3" d="M2160.75,526.35h-45.29l-7.87,17.25h-9l35.68-76.91h8.11L2178,543.6h-9.38Zm-22.7-49.69-19.11,41.93h38.34l-19-41.93Z"></path><rect class="cls-1" x="325" y="64" width="223.15" height="223.15" rx="8"></rect><rect class="cls-4" x="57.77" y="64" width="223.15" height="223.15" rx="8"></rect><rect class="cls-5" x="325" y="329.85" width="223.15" height="223.15" rx="8"></rect><rect class="cls-6" x="56.81" y="329.41" width="223.15" height="223.15" rx="8"></rect><path class="cls-7" d="M341.92,99.31c2.39,9.51,10.23,12.37,18.1,15.11,14.74,5.13,30,8,45.41,10,8,1,16,1.84,24.06,2.27,1.09.06,2.49.72,3.21-.51s0-2.43-.56-3.55c-.63-1.41-1.95-2.25-2.95-3.34-5-5.42-4.73-17.13.51-22.25A9.7,9.7,0,0,1,445.09,99c3.07,5,4.21,16.47-2.17,21.43a6.43,6.43,0,0,0-2.51,3.91c-.32,1.76.06,2.63,2.14,2.51,7.46-.44,14.92-1.08,22.33-2a259.67,259.67,0,0,0,38.39-7.31,136.14,136.14,0,0,0,15.34-5.16c7.08-2.93,8.71-4.6,12.87-12.84h.73c0,5.08,0,10.16,0,15.25,0,1.18-.9,1.43-1.73,1.84-16.05,7.84-32,15.91-48.17,23.46-10.44,4.87-15.55,13.27-17.88,23.93-2.41,11,.16,21.61,3.25,32.11,1.72,5.82,4.19,11.37,6.38,17a49.94,49.94,0,0,1,3.48,18.74c0,2.47-.9,3.1-3.14,3.13-4.32,0-8.64.31-12.95.48-.74,0-1.6-.1-2,.72-2,4.21-3.94,8.48-3.31,13.33a7.55,7.55,0,0,0,6.16,6.7c3.13.78,6.34,1.31,9.5,2,3,.64,4.37,2.12,4.54,4.81s-1.15,4.4-4,5.25a15,15,0,0,1-11.84-1,27.69,27.69,0,0,1-9.15-7.93,17,17,0,0,1-3-13.93c.52-2.69.73-5.43,1.18-8.13.3-1.73-.4-2.15-2-2.14q-11,.1-21.95,0c-1.73,0-2.13.65-1.89,2.27.56,3.77.92,7.58,1.49,11.35,1.44,9.52-12.07,23-23.21,19.81-3.34-1-5-2.39-5-5.21,0-3.12,1.38-4.53,5.11-5.3,3-.62,6.05-1.14,9-1.94,4-1.09,6-3.85,6.07-8s-1.44-7.8-3.1-11.44c-.51-1.13-1.43-1.19-2.48-1.23-4.4-.14-8.8-.38-13.2-.47-1.94,0-2.69-.72-2.74-2.8-.19-7.9,1.81-15.3,4.87-22.46A116.26,116.26,0,0,0,409,181.63c2-13,.08-25.19-9-35.46a17.09,17.09,0,0,0-5.08-4c-16.71-8.55-33.64-16.67-50.59-24.75-2.46-1.18-3.63-2.35-3.31-5.37.45-4.16.12-8.39.12-12.59Z"></path><path class="cls-7" d="M166.23,276.71c-9.67.61-20.23-1.38-30.56-4.39a75.5,75.5,0,0,1-13.57-6,101.21,101.21,0,0,1-29.77-23.44C86.41,236.12,80.86,229,77,220.74a24.68,24.68,0,0,1-1.82-5.63c-1-5.05.94-8.93,5.65-10.81,1.88-.75,1.75-1.45,1-2.94A162.76,162.76,0,0,1,70.91,176c-5-15-1.88-28.94,5.41-42.42a57.14,57.14,0,0,1,23.31-23.78,3.72,3.72,0,0,0,1.83-2,33.8,33.8,0,0,1,2.11-4.42c3.8-6.55,9.43-8.87,16.4-5.94,3.71,1.57,7.21,1.32,10.81.81C146,96.09,159.79,90,173,82.39c3.95-2.27,7.88-4.6,11.95-6.63,5.24-2.61,11.22-1.54,14.71,2.4,3,3.38,3.05,7.41,2.07,11.44-.5,2.05-2.14,3.18-4.46,3.23a25.91,25.91,0,0,1-7.57-1.45c-1.84-.51-2.58.11-2.63,1.94a18.45,18.45,0,0,1-.28,3.07c-.78,4.13-2.6,5.23-6.59,3.89a15.71,15.71,0,0,1-4.83-2.4c-5-3.89-10.3-3.18-15.61-1-2.8,1.15-4.22,3.7-5.24,6.43a25.52,25.52,0,0,0-1.59,10.13c.06,1.35-.27,2.12-1.79,2.13a17.23,17.23,0,0,0-2.55.37c-3.81.6-7.85.13-11,3.4-1.32,1.38-3.69,1.24-5.6,1.72-1.49.38-3,.63-4.51,1.07-4.93,1.46-6.82,4.52-5.9,9.56a39.7,39.7,0,0,0,1.05,4c.92,3.14.47,4.39-2.56,5.75a42.21,42.21,0,0,0-12.65,8.28c-9,8.94-10.2,19.15-6.24,30.84,2.78,8.19,8.08,11.55,16.41,11.45a117.13,117.13,0,0,1,13.87.88c3.48.37,4.1,1.26,4,4.69a31,31,0,0,1-.43,3.57c-.16,1.21-.79,2.42,1.56,2.23,1.59-.14,1.66,1.79,1.82,3,.48,3.49.74,7,1.13,10.51,1,8.77,3.52,17,8.66,24.26,2.89,4.07,6.39,7.54,11.27,9.05,7.71,2.38,13.14.59,18.36-6.08,4.24-5.41,8-11.19,12.59-16.33,3-3.37,2.76-7.38,1.14-11.41-2-4.93-1.75-5,2.26-8.4a80,80,0,0,0,16.35-19.47c.42-.67,1.13-1.53.41-2.35s-1.44-.2-2.19-.08c-2.55.42-5.09.8-7.63,1.23s-4.34-.69-5.65-3c-4.19-7.4-7.81-15.1-11.7-22.66-1.38-2.67-3-5.25-4.14-8-2.42-5.83-7.15-6.82-12.64-6.52-5.15.29-10.3.71-15.45.82A13.07,13.07,0,0,1,138.12,138a23.81,23.81,0,0,1-1-5c-.14-2.9,1.49-4.34,4.36-4a15,15,0,0,1,5.6,1.86,4,4,0,0,1,2.37,3.94,10.86,10.86,0,0,0,.09,2.06c.18,1.1.32,2.39,1.53,2.77,1.05.32,1.58-.83,2.26-1.44.31-.29.6-.62.9-.93,2.33-2.4,3.15-2.38,5.38.09,2.5,2.78,2.5,2.78,5.44.81,3.89-2.59,5.18-2.17,6.64,2.25a2.93,2.93,0,0,0,2.36,2.14c8.91,1.26,12.52,8.37,16.42,15,3.56,6.07,6.76,12.36,10.14,18.55.41.75.94,1.43,1.41,2.15.92,1.4,1.95,1.46,3.17.33,4.07-3.79,9-6.32,13.77-9a13.76,13.76,0,0,0,2.87-2.16c2.27-2.21,1.8-3.89-1.33-4.69-2.63-.67-5.31-.17-8-.11-6.93.17-10.41-2.53-11.85-9.23-.77-3.56.7-4.93,4.2-3.91a31.37,31.37,0,0,1,6.55,3,28.42,28.42,0,0,0,13.37,3.33c2,.05,3.95.27,5.92.31,6.74.15,10.35,4.24,12.77,9.94,1.95,4.58,3.52,9.34,6,13.69.67,1.16,1.23,3,2.73,2.67,1.68-.41.95-2.34.93-3.61a44.36,44.36,0,0,1,1.65-13.26c1.64-5.58,5.77-7.91,11-6.19,3.57,1.16,4.84,3.34,4.25,7A71.72,71.72,0,0,1,266.81,178a25.6,25.6,0,0,0-.34,15.2c1.54,5.86,2.79,11.76.72,17.76-1.38,4-3.71,7.56-5.83,11.19-8.8,15.06-19.38,28.57-34.1,38.43-11.64,7.8-24.51,12.27-38.26,14.5A132.79,132.79,0,0,1,166.23,276.71Z"></path><path class="cls-7" d="M178.32,135.1c.68-6.39,1.59-7.27,8-6.48a44.35,44.35,0,0,1,6.68,1.81,2.35,2.35,0,0,1,1.85,1.6c.26,1.07-.57,1.57-1.28,2a30.94,30.94,0,0,1-12.78,4.3C178.43,138.62,178.35,136.68,178.32,135.1Z"></path><path class="cls-7" d="M161.31,109.1c0-4.76,2.41-7.8,6.45-8.55,1.64-.3,2.7.09,2,2q-2.42,6.36-5.05,12.64c-.49,1.14-1.32,1.34-1.95-.06A17.6,17.6,0,0,1,161.31,109.1Z"></path><path class="cls-7" d="M208.29,126.78a2.51,2.51,0,0,1,3,2.21c.57,2.42,1.25,4.82,2,7.2.55,1.88-.4,2.24-1.85,1.75a13,13,0,0,1-7.7-7.45c-.69-1.54-.06-2.69,1.62-3.11C206.27,127.14,207.29,127,208.29,126.78Z"></path><path class="cls-7" d="M254,113c3.32,0,4.4,1.29,3.54,4.5-.46,1.68-.46,4.17-2.06,4.64-1.28.37-2.22-2-3.43-3.1s-2-2.08-3.06-3.12-1.13-1.71.48-2.11A17.12,17.12,0,0,1,254,113Z"></path><path class="cls-7" d="M118,89.35c2.49-2,4.41-4.58,7.89-4.83,1.69-.12,1.93.37,1.31,1.87C125.1,91.43,123.88,91.88,118,89.35Z"></path><path class="cls-7" d="M168.25,541.75c-4.24,0-8.49-.14-12.71.06-2.5.12-3.08-.8-3-3.12.15-5.27,0-10.55.08-15.82.05-2-.61-2.62-2.52-2.49s-4,0-6,.06c-1.47,0-2-.59-2-2,0-6.58.07-13.15,0-19.72,0-1.79.75-2.22,2.36-2.14,2.07.1,4.15,0,6.22,0,1.32,0,1.85-.46,1.84-1.81,0-5.89-.06-11.77,0-17.65,0-1.58-.78-2-2.1-2.39-17-4.74-30.52-14.43-40.05-29.31-10.12-15.81-13.13-33-9.26-51.41,5.58-26.5,27.25-47.58,54.22-52.67,32.09-6.05,64.08,10.69,76.23,41.11,10.64,26.63,6,51.24-13.17,72.76-8.67,9.75-19.66,15.95-32.16,19.47-1.71.48-2.37,1.14-2.33,3q.18,8.31,0,16.61c0,1.88.63,2.43,2.39,2.32,2.07-.12,4.16,0,6.23-.05,1.31,0,1.85.42,1.84,1.79-.05,6.75,0,13.49,0,20.24,0,1.35-.58,1.86-1.88,1.83-2.07,0-4.16.1-6.22,0-1.87-.13-2.38.62-2.35,2.39.09,5.54,0,11.08.07,16.61,0,1.77-.41,2.45-2.3,2.4C177.25,541.67,172.75,541.75,168.25,541.75ZM205,408.69a36.71,36.71,0,1,0-36.88,36.52C188.76,445.16,205,429.08,205,408.69Z"></path><path class="cls-7" d="M436.61,531.85c-1.4-.54-1.29-2.31-2.09-3.46-7.17-10.22-15-19.92-23.11-29.38-14.54-16.94-29.29-33.69-44.83-49.71-5.92-6.1-11.57-12.37-16-19.6a72.53,72.53,0,0,1-9-22c-1.86-8.1-2.39-16.23-.13-24.38,4.08-14.73,12.7-25.23,27.72-29.67,11.19-3.31,22.48-3.83,33.63.08a55.85,55.85,0,0,1,21.4,14.05,76.24,76.24,0,0,1,10.91,14.54c1.32,2.21,1.7,2.22,3,.06,4.22-6.88,8.85-13.46,15.27-18.49,10.24-8.05,21.75-13.05,35-12.52,10.75.43,21,3,29.63,10a41,41,0,0,1,13.51,20.74c2.72,9.18,1.91,18.2-.35,27.35A77.74,77.74,0,0,1,521.8,431c-4.19,7-9.78,12.73-15.43,18.46-8.1,8.2-15.67,16.85-23,25.71-5.52,6.63-11.47,12.91-17.13,19.43-8.81,10.13-17.41,20.43-25.57,31.09C439.16,527.62,438,529.76,436.61,531.85Z"></path></svg>