<svg width="12" height="10" viewBox="0 0 12 10" fill="none" xmlns="http://www.w3.org/2000/svg">
<path d="M12 3.73057C12 3.16062 11.7558 2.62522 11.2896 2.1589C11.4672 1.70985 11.5116 1.1399 11.4672 0.483593C11.445 0.207254 11.1564 0 10.8012 0C10.6014 0 8.91426 0.0172712 7.93753 0.690845C7.0939 0.56995 6.20596 0.56995 5.34018 0.690845C4.38561 0.0172712 2.69845 0 2.47646 0C2.12126 0 1.83267 0.207254 1.81048 0.483593C1.74387 1.1399 1.81048 1.70985 1.98807 2.1589C1.52188 2.64249 1.27769 3.1779 1.27769 3.73057C1.27769 4.93955 2.47646 6.02765 4.29681 6.54575C4.23021 6.6494 4.18581 6.7703 4.14141 6.8912C2.21006 6.73575 1.29989 5.37135 1.25549 5.3195C1.10009 5.06045 0.700503 4.95682 0.367514 5.095C0.0345234 5.2159 -0.0986731 5.52675 0.0789223 5.78585C0.123321 5.8722 1.34429 7.7202 4.03041 7.92745V9.48185C4.03041 9.77545 4.31901 10 4.69639 10H8.58132C8.9587 10 9.24727 9.77545 9.24727 9.48185V7.4266C9.24727 7.1157 9.15846 6.8221 9.00307 6.56305C10.8012 6.02765 12 4.95682 12 3.73057Z" fill="#CFCFCF"/>
</svg>
