<svg width="12" height="12" viewBox="0 0 12 12" fill="none" xmlns="http://www.w3.org/2000/svg">
<path d="M11.8635 0.236821C11.6634 -0.00254995 11.3232 -0.0623926 11.063 0.117135L9.90216 0.915037C9.36178 0.336558 8.60124 0.0173976 7.78067 0.0173976C6.15953 0.0173976 4.81858 1.33394 4.81858 2.96963C4.81858 3.209 4.8386 3.42843 4.89864 3.64785C3.49765 3.34864 2.65706 2.33131 2.33684 0.496139C2.29681 0.256768 2.11668 0.0772402 1.87651 0.0173976C1.65636 -0.042445 1.41619 0.0572927 1.27609 0.236821C1.23606 0.276716 -2.06626 4.86465 2.7171 8.75442C2.25678 9.73185 0.875807 10.5696 0.335427 10.8489C0.0752435 10.9686 -0.044841 11.2479 0.0152012 11.5271C0.0752435 11.8064 0.315413 11.9859 0.59561 11.9859H1.63634C7.72062 11.9859 10.4826 8.97384 10.5426 2.23157L11.8035 1.03472C12.0437 0.835247 12.0637 0.476191 11.8635 0.236821Z" fill="#EA5D0B"/>
</svg>
