<svg width="12" height="11" viewBox="0 0 12 11" fill="none" xmlns="http://www.w3.org/2000/svg">
<path d="M8.18627 1.73987C6.09301 1.73987 4.3728 3.28325 4.3728 5.20306V10.6237C4.3728 10.8307 4.55933 11.0001 4.78731 11.0001H6.94275C7.17072 11.0001 7.35725 10.8307 7.35725 10.6237V5.35363C7.35725 4.93956 7.73031 4.60077 8.18627 4.60077C8.64222 4.60077 9.01528 4.93956 9.01528 5.35363V10.6237C9.01528 10.8307 9.20181 11.0001 9.42979 11.0001H11.5852C11.8132 11.0001 11.9997 10.8307 11.9997 10.6237V5.20306C11.9997 3.30207 10.3003 1.73987 8.18627 1.73987Z" fill="#CFCFCF"/>
<path d="M1.49223 0.083374C0.663211 0.083374 0 0.685668 0 1.43854C0 2.1914 0.663211 2.7937 1.49223 2.7937C2.32124 2.7937 2.98445 2.1914 2.98445 1.43854C2.98445 0.685668 2.32124 0.083374 1.49223 0.083374Z" fill="#CFCFCF"/>
<path d="M2.56994 3.50903H0.414507C0.186528 3.50903 0 3.67843 0 3.88547V10.6236C0 10.8307 0.186528 11.0001 0.414507 11.0001H2.56994C2.79792 11.0001 2.98445 10.8307 2.98445 10.6236V3.88547C2.98445 3.67843 2.79792 3.50903 2.56994 3.50903Z" fill="#CFCFCF"/>
</svg>
